<?xml version="1.0" encoding="UTF-8"?>
<svg width="679px" height="114px" viewBox="0 0 679 114" version="1.1" xmlns="http://www.w3.org/2000/svg" xmlns:xlink="http://www.w3.org/1999/xlink">
    <!-- Generator: Sketch 52.6 (67491) - http://www.bohemiancoding.com/sketch -->
    <title>logo_black</title>
    <desc>Created with Sketch.</desc>
    <g id="Page-1" stroke="none" stroke-width="1" fill="none" fill-rule="evenodd">
        <g id="logo_black" fill="#648dae">
            <polygon id="Path" points="430.23 92.7 430.23 22.64 417.7 22.64 417.7 51.3 382.32 51.3 382.32 22.64 369.79 22.64 369.79 92.7 382.32 92.7 382.32 62.7 417.7 62.7 417.7 92.7"></polygon>
            <path d="M468.55,38.81 C461.429197,38.7482848 454.582528,41.5518154 449.55,46.59 C441.588447,54.5299925 439.214275,66.4939342 443.540642,76.8723904 C447.867009,87.2508466 458.036093,93.986002 469.28,93.92 C477.2,93.92 486.13,90.54 490.59,85.92 L482.89,77.92 C479.89,80.98 474.12,83.19 469.18,83.19 C461.81,83.19 456.01,78.28 454.41,70.69 L454.41,70.53 L494.41,70.53 C494.41,60.95 492.04,52.97 487.63,47.45 C483.22,41.93 476.48,38.81 468.55,38.81 Z M454.45,61.23 L454.45,61.06 C456.029363,54.3071538 462.075112,49.5486179 469.01,49.6 C476.01,49.6 481.01,53.78 482.55,61.07 L482.55,61.23 L454.45,61.23 Z" id="Shape" fill-rule="nonzero"></path>
            <path d="M522.2,93.92 C528.65,93.92 535.2,90.97 538.78,86.4 L539.02,86.1 L539.02,92.7 L550.93,92.7 L550.93,61 C550.93,47.52 542.06,38.81 528.34,38.81 C521.75,38.81 514.91,40.6 507.43,44.27 L511.61,52.73 C517.03,50.04 521.61,48.73 525.88,48.73 C534.11,48.73 539.02,53.3 539.02,60.95 L539.02,62.57 L538.84,62.5 C534.115895,60.6744887 529.104119,59.7059967 524.04,59.64 C511.8,59.64 502.58,67.16 502.58,77.12 C502.58,87.08 510.65,93.92 522.2,93.92 Z M525.88,68.13 C530.297135,68.0970491 534.689447,68.7930615 538.88,70.19 L538.97,70.19 L538.97,76.26 C538.176611,79.0724082 536.264488,81.4363552 533.68,82.8 C531.004901,84.2990212 527.986415,85.077763 524.92,85.06 C522.252945,85.1433693 519.63111,84.3571699 517.45,82.82 C515.525798,81.3975764 514.408166,79.1325073 514.45,76.74 C514.49,71.84 519.39,68.13 525.88,68.13 Z" id="Shape" fill-rule="nonzero"></path>
            <rect id="Rectangle" x="564.72" y="21.41" width="12.22" height="71.29"></rect>
            <path d="M612.08,83.54 C608.98,83.54 606.73,80.91 606.73,77.27 L606.73,50.11 L618.73,50.11 L618.73,40 L606.73,40 L606.73,25.51 L594.81,25.51 L594.81,40 L587.14,40 L587.14,50.07 L594.81,50.07 L594.81,78.77 C594.81,87.67 600.9,93.88 609.62,93.88 C613.678844,93.8167424 617.594599,92.3703823 620.72,89.78 L617.25,81.66 C615.811712,82.8929547 613.974308,83.5611017 612.08,83.54 Z" id="Path"></path>
            <path d="M655.9,49.19 C662.54,49.19 667.18,54.3 667.18,61.61 L667.18,92.7 L679,92.7 L679,59.15 C679,47.15 671,38.81 659.48,38.81 C652.61,38.81 646.33,42.04 643.11,47.25 L642.86,47.64 L642.86,21.41 L630.64,21.41 L630.64,92.7 L642.86,92.7 L642.86,60.79 C642.86,54.39 648.71,49.19 655.9,49.19 Z" id="Path"></path>
            <g id="Logo">
                <path d="M92.54,0.59 L21.79,0.59 C10.2056989,0.62295696 0.82295696,10.0056989 0.79,21.59 L0.79,92.35 C0.82295696,103.934301 10.2056989,113.317043 21.79,113.35 L92.54,113.35 C104.124301,113.317043 113.507043,103.934301 113.54,92.35 L113.54,21.62 C113.523528,10.0239849 104.13598,0.623025415 92.54,0.59 Z M12.44,21.59 C12.4455187,16.4300433 16.6300403,12.249997 21.79,12.25 L43.06,12.25 L12.44,42.86 L12.44,21.59 Z M12.44,59.39 L59.59,12.25 L93.59,12.25 L12.41,93.43 L12.44,59.39 Z M20.69,101.69 L31.88,90.52 L43.06,101.69 L20.69,101.69 Z M59.58,101.69 L40.14,82.25 L57.14,65.25 L93.64,101.71 L59.58,101.69 Z M101.89,93.44 L65.43,57 L101.89,20.64 L101.89,93.44 Z" id="Icon" fill-rule="nonzero"></path>
                <g id="Text" transform="translate(169.000000, 19.000000)">
                    <rect id="Rectangle" x="68.46" y="19.33" width="11.1" height="54.62"></rect>
                    <path d="M74.06,0.38 C71.5019976,0.359813019 69.1857357,1.8884033 68.1984271,4.24827734 C67.2111185,6.60815138 67.7487944,9.33075344 69.5590792,11.1381418 C71.369364,12.9455302 74.0928236,13.4788457 76.4511136,12.4877596 C78.8094037,11.4966734 80.334283,9.1779668 80.31,6.62 C80.2407626,3.19895804 77.4811484,0.443759263 74.06,0.38 Z" id="Path"></path>
                    <rect id="Rectangle" x="92.62" y="2.21" width="11" height="71.75"></rect>
                    <path d="M142.69,18.08 C127.06,18.08 113.86,31.14 113.86,46.59 C113.86,62.04 127.06,75.2 142.69,75.2 C158.403089,74.9900695 171.090069,62.3030892 171.3,46.59 C171.3,31.14 158.19,18.08 142.69,18.08 Z M142.69,65.46 C133.08,65.46 124.96,56.82 124.96,46.59 C124.96,36.36 133.08,27.82 142.69,27.82 C152.3,27.82 160.2,36.42 160.2,46.59 C160.2,56.76 152.18,65.46 142.69,65.46 Z" id="Shape" fill-rule="nonzero"></path>
                    <polygon id="Path" points="46.28 2.21 12.4 36.09 12.4 2.21 0.98 2.21 0.98 73.95 12.4 73.95 12.4 52.95 18.79 46.37 46.41 73.95 62.65 73.95 26.86 38.17 62.65 2.21"></polygon>
                    <circle id="Oval" cx="183.25" cy="67.38" r="7.82"></circle>
                </g>
            </g>
        </g>
    </g>
</svg>
